<?xml version="1.0" encoding="UTF-8"?>
<svg xmlns="http://www.w3.org/2000/svg" xmlns:xlink="http://www.w3.org/1999/xlink" width="640pt" height="512pt" viewBox="0 0 640 512" version="1.1">
<g id="surface51">
<path style=" stroke:none;fill-rule:nonzero;fill:rgb(96.470588%,96.470588%,13.333334%);fill-opacity:1;" d="M 192 160 L 224 160 L 224 32 L 192 32 C 156.648438 32 128 60.648438 128 96 C 128 131.351562 156.648438 160 192 160 Z M 0 416 C 0 451.351562 28.648438 480 64 480 L 96 480 L 96 352 L 64 352 C 28.648438 352 0 380.648438 0 416 Z M 337.460938 288 C 302.550781 288 261.300781 301.121094 232.730469 320 C 207.941406 336.378906 188.210938 352 128 352 L 128 480 L 185.53125 495.96875 C 211.738281 503.25 238.539062 509.089844 265.839844 511.019531 C 298.53125 513.328125 331.441406 511.691406 363.421875 504.820312 C 472.898438 481.300781 512 429.21875 512 384 C 512 320 427.820312 288 337.460938 288 Z M 491.421875 7.191406 C 459.441406 0.320312 426.53125 -1.328125 393.839844 0.988281 C 366.539062 2.921875 339.738281 8.761719 313.53125 16.03125 L 256 32 L 256 160 C 316.199219 160 335.941406 175.621094 360.730469 192 C 389.300781 210.878906 430.550781 224 465.460938 224 C 555.820312 224 640 192 640 128 C 640 82.78125 600.898438 30.699219 491.421875 7.191406 Z M 491.421875 7.191406 "/>
</g>
</svg>
